<svg width="32" height="32" viewBox="0 0 32 32" fill="none" xmlns="http://www.w3.org/2000/svg">
<circle cx="16" cy="16" r="16" fill="#4E5555"/>
<g clip-path="url(#clip0_138_18)">
<path d="M16.0028 11.3784C13.4505 11.3784 11.3843 13.4469 11.3843 15.9969C11.3843 18.5492 13.4528 20.6154 16.0028 20.6154C18.555 20.6154 20.6213 18.5469 20.6213 15.9969C20.6213 13.4447 18.5528 11.3784 16.0028 11.3784ZM16.0028 18.9947C14.346 18.9947 13.005 17.6529 13.005 15.9969C13.005 14.3409 14.3468 12.9992 16.0028 12.9992C17.6588 12.9992 19.0005 14.3409 19.0005 15.9969C19.0013 17.6529 17.6595 18.9947 16.0028 18.9947Z" fill="white"/>
<path d="M19.7107 7.05752C18.0547 6.98027 13.9529 6.98402 12.2954 7.05752C10.8389 7.12577 9.55418 7.47752 8.51843 8.51327C6.78743 10.2443 7.00868 12.5768 7.00868 15.9975C7.00868 19.4985 6.81368 21.777 8.51843 23.4818C10.2562 25.2188 12.6224 24.9915 16.0027 24.9915C19.4707 24.9915 20.6677 24.9938 21.8939 24.519C23.5612 23.8718 24.8197 22.3815 24.9427 19.7048C25.0207 18.048 25.0162 13.947 24.9427 12.2895C24.7942 9.12977 23.0984 7.21352 19.7107 7.05752ZM22.3319 22.3365C21.1972 23.4713 19.6229 23.37 15.9809 23.37C12.2309 23.37 10.7272 23.4255 9.62993 22.3253C8.36618 21.0675 8.59493 19.0478 8.59493 15.9855C8.59493 11.8418 8.16968 8.85752 12.3284 8.64452C13.2839 8.61077 13.5652 8.59952 15.9704 8.59952L16.0042 8.62202C20.0009 8.62202 23.1367 8.20352 23.3249 12.3615C23.3677 13.3103 23.3774 13.5953 23.3774 15.9968C23.3767 19.7033 23.4472 21.216 22.3319 22.3365Z" fill="white"/>
<path d="M20.8046 12.2754C21.4006 12.2754 21.8838 11.7922 21.8838 11.1962C21.8838 10.6001 21.4006 10.1169 20.8046 10.1169C20.2085 10.1169 19.7253 10.6001 19.7253 11.1962C19.7253 11.7922 20.2085 12.2754 20.8046 12.2754Z" fill="white"/>
</g>
<defs>
<clipPath id="clip0_138_18">
<rect width="18" height="18" fill="white" transform="translate(7 7)"/>
</clipPath>
</defs>
</svg>
