<svg width="6" height="8" viewBox="0 0 6 8" fill="none" xmlns="http://www.w3.org/2000/svg">
<path d="M3.02612 1.75323C2.46232 1.75323 2.00342 2.21214 2.00342 2.77593C2.00342 3.33973 2.46232 3.79864 3.02612 3.79864C3.58992 3.79864 4.04882 3.33973 4.04882 2.77593C4.04882 2.21214 3.58992 1.75323 3.02612 1.75323ZM3.02612 3.50644C2.62332 3.50644 2.29562 3.17873 2.29562 2.77593C2.29562 2.37314 2.62332 2.04543 3.02612 2.04543C3.42892 2.04543 3.75662 2.37314 3.75662 2.77593C3.75662 3.17873 3.42892 3.50644 3.02612 3.50644Z" fill="#C04500"/>
<path d="M4.98131 0.820644C4.45213 0.29147 3.74851 0 3.00019 0C2.25172 0 1.54825 0.29147 1.01907 0.820644C0.039765 1.79981 -0.0819363 3.64213 0.755509 4.75833L3.00019 8L5.24151 4.76286C6.08232 3.64213 5.96062 1.79981 4.98131 0.820644ZM5.00454 4.59207L3.00019 7.4866L0.99263 4.58754C0.233055 3.57478 0.3419 1.91099 1.22581 1.02723C1.69975 0.553281 2.32988 0.2922 3.00019 0.2922C3.6705 0.2922 4.30063 0.553281 4.77472 1.02723C5.65863 1.91099 5.76747 3.57478 5.00454 4.59207Z" fill="#C04500"/>
</svg>
