<?xml version="1.0" encoding="utf-8"?>
<!-- Generator: Adobe Illustrator 25.2.3, SVG Export Plug-In . SVG Version: 6.00 Build 0)  -->
<svg version="1.1" id="Слой_1" xmlns="http://www.w3.org/2000/svg" xmlns:xlink="http://www.w3.org/1999/xlink" x="0px" y="0px"
	 viewBox="0 0 1280 800" style="enable-background:new 0 0 1280 800;" xml:space="preserve">
<g>
	<g>
		<path d="M782,399.53c-1.08,0-2.1-0.57-2.66-1.54l-59.78-104.96l-37.21,50.8c-10.15,13.49-25.62,21.21-42.46,21.21
			c-0.01,0-0.02,0-0.03,0c-16.86-0.01-32.33-7.74-42.45-21.22l-37.04-50.68l-59.72,104.85c-0.69,1.2-2.1,1.8-3.44,1.44
			c-1.34-0.36-2.27-1.57-2.27-2.95v-149.4c0-7.74,4.76-14.3,12.12-16.71c7.37-2.4,15.07,0.08,19.64,6.34l33.03,45.2l32.19-56.51
			c9.97-17.5,27.94-27.94,48.07-27.94s38.11,10.45,48.07,27.94l32.13,56.41l33.1-45.19c4.57-6.25,12.28-8.73,19.64-6.32
			c7.36,2.41,12.11,8.96,12.11,16.7v149.48c0,1.39-0.93,2.6-2.27,2.95C782.52,399.5,782.26,399.53,782,399.53z M512.69,235.59
			c-1.32,0-2.59,0.22-3.73,0.59c-3.82,1.25-7.9,4.76-7.9,10.9v137.86l55.37-97.21l-34.65-47.42
			C519.23,236.83,515.82,235.59,512.69,235.59z M723.52,287.62l55.43,97.31V247c0-6.13-4.08-9.64-7.9-10.89
			c-3.82-1.25-9.19-0.82-12.81,4.12L723.52,287.62z M563.69,287.31l38.63,52.86c8.93,11.9,22.62,18.74,37.54,18.75
			c0.01,0,0.02,0,0.02,0c14.91,0,28.59-6.83,37.55-18.74l38.8-52.98l-33.49-58.79c-8.86-15.56-24.85-24.86-42.76-24.86
			s-33.9,9.29-42.76,24.86L563.69,287.31z"/>
		<path d="M640,364.23c-29.95,0-54.31-24.36-54.31-54.31S610.05,255.6,640,255.6s54.31,24.36,54.31,54.31S669.95,364.23,640,364.23z
			 M640,261.71c-26.58,0-48.2,21.62-48.2,48.2s21.62,48.2,48.2,48.2s48.2-21.62,48.2-48.2S666.58,261.71,640,261.71z"/>
		<path d="M684.6,249.33h-90.12c-1.69,0-3.06-1.37-3.06-3.06c0-1.69,1.37-3.06,3.06-3.06h90.12c1.69,0,3.06,1.37,3.06,3.06
			C687.65,247.96,686.29,249.33,684.6,249.33z"/>
		<path d="M676.84,297.41c-1.19,0-2.32-0.7-2.82-1.87c-1.86-4.4-4.52-8.35-7.91-11.74c-1.19-1.19-1.19-3.13,0-4.32
			c1.19-1.19,3.13-1.19,4.32,0c3.95,3.95,7.06,8.55,9.22,13.68c0.66,1.55-0.07,3.35-1.62,4.01
			C677.64,297.33,677.24,297.41,676.84,297.41z"/>
		<path d="M640,352.95c-5.81,0-11.45-1.14-16.75-3.38c-5.12-2.17-9.73-5.27-13.68-9.22c-3.95-3.95-7.06-8.55-9.22-13.68
			c-0.66-1.55,0.07-3.35,1.62-4.01c1.56-0.66,3.35,0.07,4.01,1.62c1.86,4.4,4.52,8.35,7.91,11.74c3.39,3.39,7.34,6.05,11.74,7.91
			c9.1,3.85,19.64,3.85,28.74,0c4.4-1.86,8.35-4.52,11.74-7.91c3.39-3.39,6.06-7.34,7.91-11.74c0.66-1.55,2.45-2.28,4.01-1.62
			c1.55,0.66,2.28,2.45,1.62,4.01c-2.17,5.12-5.27,9.73-9.22,13.68c-3.95,3.95-8.55,7.05-13.68,9.22
			C651.45,351.81,645.81,352.95,640,352.95z"/>
	</g>
	<g>
		<path d="M42.36,480.19l26.32-58.17h6.11l26.32,58.17H94.1l-6.77-15.27H55.89l-6.85,15.27H42.36z M58.45,459.07h26.32l-13.12-29.46
			L58.45,459.07z"/>
		<path d="M126.28,480.19v-57.76h6.52v51.74h32.51v6.02H126.28z"/>
		<path d="M191.13,480.19v-57.76h41.75v5.94h-35.23v19.72h31.52v5.94h-31.52v20.22h35.65v5.94H191.13z"/>
		<path d="M255.82,480.19l22.2-29.46l-21.37-28.3h7.67l17.74,23.6l17.58-23.6h7.59l-21.37,28.22l22.2,29.54h-7.76l-18.48-24.84
			l-18.48,24.84H255.82z"/>
		<path d="M328.84,480.19l26.32-58.17h6.11l26.32,58.17h-7.01l-6.77-15.27h-31.44l-6.85,15.27H328.84z M344.93,459.07h26.32
			l-13.12-29.46L344.93,459.07z"/>
		<path d="M412.76,480.19v-57.76h6.1l36.39,46.29v-46.29h6.35v57.76h-5.2l-37.3-47.36v47.36H412.76z"/>
		<path d="M491.72,480.19v-57.76h20.05c9.02,0,16.39,2.74,22.11,8.21c5.72,5.47,8.58,12.36,8.58,20.67c0,8.25-2.88,15.13-8.62,20.63
			c-5.75,5.5-13.11,8.25-22.07,8.25H491.72z M498.24,474.17h13.53c7.21,0,13-2.16,17.37-6.48c4.37-4.32,6.56-9.78,6.56-16.38
			c0-6.55-2.2-11.99-6.6-16.34c-4.4-4.35-10.18-6.52-17.33-6.52h-13.53V474.17z"/>
		<path d="M570.03,480.19v-57.76h41.75v5.94h-35.23v19.72h31.52v5.94h-31.52v20.22h35.65v5.94H570.03z"/>
		<path d="M639.09,480.19v-57.76h24.84c7.1,0,12.57,1.93,16.42,5.78c2.97,2.97,4.46,6.82,4.46,11.55c0,4.62-1.43,8.36-4.29,11.22
			c-2.86,2.86-6.66,4.73-11.39,5.61l17.74,23.6h-8l-16.75-22.44h-16.5v22.44H639.09z M645.61,451.89h17.74
			c4.4,0,7.98-1.07,10.73-3.22c2.75-2.15,4.13-5.09,4.13-8.83c0-3.58-1.31-6.37-3.92-8.38c-2.61-2.01-6.23-3.01-10.85-3.01h-17.82
			V451.89z"/>
		<path d="M751.06,480.19v-57.76h6.6l21.04,31.52l21.04-31.52h6.6v57.76h-6.52v-46.79l-21.04,30.94h-0.33l-21.04-30.86v46.7H751.06z
			"/>
		<path d="M836.46,480.19v-57.76h41.75v5.94h-35.23v19.72h31.52v5.94h-31.52v20.22h35.65v5.94H836.46z"/>
		<path d="M905.53,480.19v-57.76h6.52v51.74h32.51v6.02H905.53z"/>
		<path d="M1015.11,472.39c-5.56,5.86-12.63,8.79-21.21,8.79c-8.58,0-15.62-2.92-21.12-8.75c-5.5-5.83-8.25-12.87-8.25-21.12
			c0-8.2,2.78-15.22,8.33-21.08c5.56-5.86,12.62-8.79,21.21-8.79s15.62,2.92,21.12,8.75c5.5,5.83,8.25,12.87,8.25,21.12
			C1023.44,459.51,1020.66,466.53,1015.11,472.39z M977.77,468.23c4.32,4.62,9.75,6.93,16.3,6.93s11.95-2.3,16.21-6.89
			c4.26-4.59,6.39-10.24,6.39-16.96c0-6.66-2.16-12.29-6.48-16.92c-4.32-4.62-9.75-6.93-16.29-6.93c-6.55,0-11.95,2.3-16.21,6.89
			c-4.26,4.59-6.4,10.25-6.4,16.96C971.29,457.97,973.45,463.61,977.77,468.23z"/>
		<path d="M1064.12,480.19v-22.86l-24.01-34.9h7.92l19.47,28.88l19.64-28.88h7.59l-24.01,34.82v22.94H1064.12z"/>
		<path d="M1104.88,480.19l26.32-58.17h6.11l26.32,58.17h-7.01l-6.77-15.27h-31.44l-6.85,15.27H1104.88z M1120.97,459.07h26.32
			l-13.12-29.46L1120.97,459.07z"/>
		<path d="M1188.79,480.19v-57.76h6.11l36.39,46.29v-46.29h6.35v57.76h-5.2l-37.3-47.36v47.36H1188.79z"/>
	</g>
	<g>
		<path d="M431.52,538.87v-27.81h10.41c3.18,0,5.71,0.79,7.59,2.38c1.88,1.59,2.82,3.76,2.82,6.52c0,2.89-1.04,5.12-3.12,6.71
			c-2.08,1.59-4.68,2.38-7.81,2.38h-6.75v9.81H431.52z M434.66,526.2h6.87c2.3,0,4.15-0.56,5.54-1.69c1.39-1.13,2.09-2.63,2.09-4.51
			c0-1.93-0.67-3.42-2.01-4.47c-1.34-1.05-3.16-1.57-5.46-1.57h-7.03V526.2z"/>
		<path d="M468,538.87v-27.81h3.14v12.36h16.05v-12.36h3.14v27.81h-3.14v-12.51h-16.05v12.51H468z"/>
		<path d="M531.24,535.11c-2.68,2.82-6.08,4.23-10.21,4.23c-4.13,0-7.52-1.4-10.17-4.21c-2.65-2.81-3.97-6.2-3.97-10.17
			c0-3.95,1.34-7.33,4.01-10.15c2.67-2.82,6.08-4.23,10.21-4.23c4.13,0,7.52,1.4,10.17,4.21c2.65,2.81,3.97,6.2,3.97,10.17
			C535.26,528.91,533.92,532.29,531.24,535.11z M513.27,533.11c2.08,2.22,4.69,3.34,7.85,3.34s5.75-1.11,7.81-3.32
			c2.05-2.21,3.08-4.93,3.08-8.16c0-3.2-1.04-5.92-3.12-8.14c-2.08-2.22-4.69-3.34-7.85-3.34c-3.15,0-5.75,1.11-7.81,3.32
			c-2.05,2.21-3.08,4.93-3.08,8.16C510.15,528.17,511.19,530.88,513.27,533.11z"/>
		<path d="M557.27,538.87v-24.91h-9.34v-2.9h21.85v2.9h-9.34v24.91H557.27z"/>
		<path d="M606.81,535.11c-2.68,2.82-6.08,4.23-10.21,4.23c-4.13,0-7.52-1.4-10.17-4.21s-3.97-6.2-3.97-10.17
			c0-3.95,1.34-7.33,4.01-10.15c2.67-2.82,6.08-4.23,10.21-4.23s7.52,1.4,10.17,4.21c2.65,2.81,3.97,6.2,3.97,10.17
			C610.82,528.91,609.48,532.29,606.81,535.11z M588.83,533.11c2.08,2.22,4.69,3.34,7.85,3.34s5.75-1.11,7.81-3.32
			c2.05-2.21,3.08-4.93,3.08-8.16c0-3.2-1.04-5.92-3.12-8.14c-2.08-2.22-4.69-3.34-7.85-3.34c-3.15,0-5.75,1.11-7.81,3.32
			c-2.05,2.21-3.08,4.93-3.08,8.16C585.71,528.17,586.75,530.88,588.83,533.11z"/>
		<path d="M640.3,539.35c-4.27,0-7.69-1.37-10.27-4.11c-2.58-2.74-3.87-6.16-3.87-10.27c0-3.92,1.31-7.3,3.93-10.13
			c2.62-2.83,5.96-4.25,10.01-4.25c2.22,0,4.14,0.31,5.74,0.91c1.6,0.61,3.14,1.54,4.63,2.78l-2.03,2.38
			c-2.44-2.12-5.26-3.18-8.46-3.18c-3.05,0-5.57,1.12-7.57,3.36c-2,2.24-3,4.95-3,8.12c0,3.36,1,6.13,3,8.3c2,2.17,4.67,3.26,8,3.26
			c3.07,0,5.75-0.93,8.03-2.78v-6.91h-8.46v-2.82h11.48v11.08C648.28,537.93,644.56,539.35,640.3,539.35z"/>
		<path d="M668.47,538.87v-27.81h11.96c3.42,0,6.05,0.93,7.91,2.78c1.43,1.43,2.14,3.28,2.14,5.56c0,2.22-0.69,4.03-2.07,5.4
			c-1.38,1.38-3.21,2.28-5.48,2.7l8.54,11.36h-3.85l-8.07-10.81h-7.95v10.81H668.47z M671.61,525.24h8.54
			c2.12,0,3.84-0.52,5.16-1.55c1.33-1.03,1.99-2.45,1.99-4.25c0-1.72-0.63-3.07-1.89-4.03c-1.26-0.97-3-1.45-5.22-1.45h-8.58V525.24
			z"/>
		<path d="M704.74,538.87l12.67-28.01h2.94l12.67,28.01h-3.38l-3.26-7.35h-15.14l-3.3,7.35H704.74z M712.49,528.7h12.67l-6.32-14.18
			L712.49,528.7z"/>
		<path d="M748.44,538.87v-27.81h10.41c3.18,0,5.71,0.79,7.59,2.38c1.88,1.59,2.82,3.76,2.82,6.52c0,2.89-1.04,5.12-3.12,6.71
			c-2.08,1.59-4.68,2.38-7.81,2.38h-6.75v9.81H748.44z M751.58,526.2h6.87c2.3,0,4.15-0.56,5.54-1.69c1.39-1.13,2.09-2.63,2.09-4.51
			c0-1.93-0.67-3.42-2.01-4.47c-1.34-1.05-3.16-1.57-5.46-1.57h-7.03V526.2z"/>
		<path d="M784.91,538.87v-27.81h3.14v12.36h16.05v-12.36h3.14v27.81h-3.14v-12.51h-16.05v12.51H784.91z"/>
		<path d="M833.74,538.87v-11.01l-11.56-16.81h3.81l9.38,13.91l9.46-13.91h3.65l-11.56,16.77v11.04H833.74z"/>
	</g>
	<g>
		<rect x="41.01" y="521.57" width="371.74" height="4.58"/>
		<rect x="857.55" y="521.57" width="381.44" height="4.58"/>
	</g>
</g>
</svg>
