<svg width="50" height="50" viewBox="0 0 50 50" fill="none" xmlns="http://www.w3.org/2000/svg">
<path d="M25.3536 12.6464C25.1583 12.4512 24.8417 12.4512 24.6464 12.6464L21.4645 15.8284C21.2692 16.0237 21.2692 16.3403 21.4645 16.5355C21.6597 16.7308 21.9763 16.7308 22.1716 16.5355L25 13.7071L27.8284 16.5355C28.0237 16.7308 28.3403 16.7308 28.5355 16.5355C28.7308 16.3403 28.7308 16.0237 28.5355 15.8284L25.3536 12.6464ZM25.5 39L25.5 13L24.5 13L24.5 39L25.5 39Z" fill="black"/>
<rect x="49.5" y="0.5" width="49" height="49" rx="24.5" transform="rotate(90 49.5 0.5)" stroke="black"/>
</svg>
